<svg width="31" height="31" viewBox="0 0 31 31" fill="none" xmlns="http://www.w3.org/2000/svg">
<path d="M19.3334 13.3333C19.7016 13.3333 20.0001 13.0349 20.0001 12.6667C20.0001 12.2985 19.7016 12 19.3334 12C18.9652 12 18.6667 12.2985 18.6667 12.6667C18.6667 13.0349 18.9652 13.3333 19.3334 13.3333Z" fill="white"/>
<path d="M16.0002 12C14.5345 12 13.3335 13.201 13.3335 14.6667C13.3335 16.1323 14.5345 17.3333 16.0002 17.3333C17.4658 17.3333 18.6668 16.1323 18.6668 14.6667C18.6668 13.201 17.4658 12 16.0002 12ZM16.0002 16.3766C15.0638 16.3766 14.2902 15.6031 14.2902 14.6667C14.2902 13.7303 15.0638 12.9567 16.0002 12.9567C16.9365 12.9567 17.7101 13.7303 17.7101 14.6667C17.7101 15.6234 16.9365 16.3766 16.0002 16.3766Z" fill="white"/>
<path d="M18.1454 19.9999H13.8748C12.1104 19.9999 10.6667 18.5563 10.6667 16.7919V12.5413C10.6667 10.7769 12.1104 9.33325 13.8748 9.33325H18.1254C19.8898 9.33325 21.3334 10.7769 21.3334 12.5413V16.7919C21.3334 18.5764 19.9099 19.9999 18.1454 19.9999ZM13.8748 10.3558C12.6718 10.3558 11.6693 11.3383 11.6693 12.5613V16.8119C11.6693 18.015 12.6517 19.0175 13.8748 19.0175H18.1254C19.3284 19.0175 20.3309 18.035 20.3309 16.8119V12.5413C20.3309 11.3383 19.3485 10.3358 18.1254 10.3358H13.8748V10.3558Z" fill="white"/>
<circle cx="15.3333" cy="15.3333" r="14.8333" stroke="white"/>
</svg>
