<svg width="21" height="20" viewBox="0 0 21 20" fill="none" xmlns="http://www.w3.org/2000/svg">
<g clip-path="url(#clip0_170_1797)">
<path d="M21 18.8043L14.7228 12.8261C15.9783 11.413 16.5489 9.67391 16.5489 7.82609C16.5489 5.76087 15.6359 3.69565 14.1522 2.28261C10.9565 -0.76087 5.70652 -0.76087 2.39674 2.28261C0.913043 3.80435 0 5.76087 0 7.93478C0 10.1087 0.913043 12.0652 2.39674 13.4783C3.99457 15 6.04891 15.7609 8.21739 15.7609C10.1576 15.7609 11.9837 15.1087 13.4674 14.0217L19.7446 20L21 18.8043ZM3.65217 12.2826C2.39674 11.087 1.71196 9.56522 1.71196 7.82609C1.71196 6.19565 2.39674 4.56522 3.65217 3.36957C4.90761 2.17391 6.50543 1.52174 8.33152 1.52174C10.0435 1.52174 11.7554 2.17391 13.0109 3.36957C14.2663 4.56522 14.837 6.19565 14.837 7.93478C14.837 9.56522 14.1522 11.1957 12.8967 12.3913C11.6413 13.587 10.0435 14.1304 8.33152 14.1304C6.50543 14.1304 4.90761 13.4783 3.65217 12.2826Z" fill="white"/>
</g>
<defs>
<clipPath id="clip0_170_1797">
<rect width="21" height="20" fill="white"/>
</clipPath>
</defs>
</svg>
