<svg width="25" height="24" viewBox="0 0 25 24" fill="none" xmlns="http://www.w3.org/2000/svg">
<path d="M4.54555 -1.76072e-06L5.65946 4.79457L24.6858 4.79457L21.2902 15.8583L8.21966 15.8583L8.79459 18.3279L20.6164 18.3279L20.6164 19.6849L7.72559 19.6849L3.47656 1.35695L7.61753e-05 1.35695L7.62939e-05 -2.15809e-06L4.54555 -1.76072e-06ZM20.293 14.5013L22.8622 6.15153L5.97387 6.15153L7.91424 14.5013L20.293 14.5013Z" fill="white"/>
<path d="M17.8588 20.2368C18.8919 20.2368 19.7273 21.0781 19.7273 22.1185C19.7273 23.1588 18.8919 24.0001 17.8588 24.0001C16.8257 24.0001 15.9903 23.1588 15.9903 22.1185C15.9903 21.0781 16.8257 20.2368 17.8588 20.2368ZM17.8588 22.6432C18.1463 22.6432 18.3798 22.4079 18.3798 22.1185C18.3798 21.829 18.1463 21.5938 17.8588 21.5938C17.5713 21.5938 17.3378 21.829 17.3378 22.1185C17.3378 22.4079 17.5713 22.6432 17.8588 22.6432Z" fill="white"/>
<path d="M10.3935 20.2368C11.4265 20.2368 12.262 21.0781 12.262 22.1185C12.262 23.1588 11.4265 24.0001 10.3935 24.0001C9.3604 24.0001 8.52497 23.1588 8.52497 22.1185C8.52497 21.0781 9.3604 20.2368 10.3935 20.2368ZM10.3935 22.6432C10.6809 22.6432 10.9145 22.4079 10.9145 22.1185C10.9145 21.829 10.6809 21.5938 10.3935 21.5938C10.106 21.5938 9.87244 21.829 9.87244 22.1185C9.87244 22.4079 10.106 22.6432 10.3935 22.6432Z" fill="white"/>
</svg>
